<svg xmlns="http://www.w3.org/2000/svg" xmlns:xlink="http://www.w3.org/1999/xlink" version="1.1" x="0px" y="0px" viewBox="0 0 100 100" enable-background="new 0 0 100 100" xml:space="preserve"><g><g><polygon points="44,21 64,21 94,50.75 64,81 44,81 74,50.5   "></polygon><path d="M64.208,81H42.807l30.486-30.994L42.778,20h21.428l0.146,0.145l30.354,30.103l-0.352,0.355L64.208,81z M45.193,80h18.599    l29.501-29.747L63.794,21H45.222l29.485,28.994L45.193,80z"></path></g><g><polygon points="6,21 26,21 56,50.75 26,81 6,81 36,50.5   "></polygon><path d="M26.208,81H4.807l30.486-30.994L4.778,20h21.428l0.146,0.145l30.354,30.103l-0.352,0.355L26.208,81z M7.193,80h18.599    l29.501-29.747L25.794,21H7.222l29.485,28.994L7.193,80z"></path></g></g></svg>