<svg xmlns="http://www.w3.org/2000/svg" xmlns:xlink="http://www.w3.org/1999/xlink" version="1.1" x="0px" y="0px" viewBox="0 0 100 100" enable-background="new 0 0 100 100" xml:space="preserve"><path fill="#000000" d="M55.231,88.416l20.484-30.794c1.912-2.874,1.132-6.752-1.741-8.664c-2.875-1.913-6.753-1.131-8.663,1.742  l-8.12,12.207V15c0-3.972-3.22-7.191-7.191-7.191S42.809,11.028,42.809,15v47.908L34.689,50.7c-1.911-2.873-5.788-3.653-8.664-1.742  c-2.873,1.912-3.653,5.79-1.742,8.664l20.49,30.803c0.14,0.213,0.296,0.416,0.463,0.613c0.047,0.056,0.097,0.108,0.146,0.163  c0.108,0.119,0.222,0.234,0.341,0.347c0.068,0.063,0.136,0.127,0.207,0.188c0.106,0.091,0.218,0.177,0.332,0.262  c0.081,0.06,0.159,0.123,0.242,0.179c0.012,0.008,0.022,0.018,0.035,0.025c0.036,0.024,0.075,0.04,0.112,0.062  c0.197,0.126,0.399,0.241,0.608,0.343c0.089,0.044,0.18,0.082,0.271,0.121c0.167,0.072,0.335,0.137,0.507,0.193  c0.108,0.035,0.214,0.07,0.323,0.101c0.167,0.045,0.337,0.08,0.507,0.111c0.104,0.019,0.208,0.043,0.313,0.057  c0.249,0.033,0.499,0.051,0.751,0.054c0.021,0.001,0.042,0.005,0.062,0.005c0.002,0,0.004,0,0.006,0s0.004,0,0.006,0  c0.021,0,0.042-0.004,0.062-0.005c0.251-0.003,0.502-0.021,0.751-0.054c0.104-0.014,0.209-0.038,0.313-0.058  c0.17-0.031,0.338-0.065,0.505-0.11c0.109-0.03,0.218-0.065,0.327-0.102c0.17-0.057,0.336-0.12,0.501-0.19  c0.094-0.04,0.187-0.08,0.278-0.125c0.203-0.1,0.4-0.212,0.594-0.334c0.04-0.025,0.083-0.043,0.123-0.069  c0.014-0.009,0.025-0.02,0.038-0.028c0.078-0.053,0.151-0.111,0.227-0.168c0.12-0.089,0.237-0.179,0.348-0.274  c0.067-0.058,0.132-0.117,0.196-0.179c0.124-0.115,0.242-0.235,0.354-0.359c0.046-0.051,0.092-0.1,0.136-0.151  C54.931,88.842,55.09,88.634,55.231,88.416z"></path></svg>