<svg xmlns="http://www.w3.org/2000/svg" xmlns:xlink="http://www.w3.org/1999/xlink" version="1.1" x="0px" y="0px" viewBox="0 0 100 100" enable-background="new 0 0 100 100" xml:space="preserve"><g><path d="M37.2,35c0-1.4-1.1-2.5-2.5-2.5c-9.5,0-17.2,7.6-17.2,17c0,1.4,1.1,2.5,2.5,2.5s2.5-1.1,2.5-2.5c0-6.6,5.5-12,12.2-12   C36.1,37.5,37.2,36.4,37.2,35z"></path><path d="M38.4,95c1.6,0,3.3-0.2,4.8-0.6l6.7-1.7l6.7,1.7c1.6,0.4,3.2,0.6,4.8,0.6c5.3,0,10.4-2.1,14.1-5.8l0.2-0.2   c5.3-5.3,9.5-11.5,12.4-18.4l1.2-2.8l-3-0.6c-8.1-1.6-14-8.9-14-17.1c0-7,4.2-13.4,10.7-16.1l3.6-1.5l-2.8-2.6   c-5.1-4.7-11.6-7.3-18.6-7.3c-4.1,0-8.2,0.5-12.2,1.5l-0.6,0.1v-0.5c0-5.9,3.3-11.3,8.6-13.9l-2.2-4.5c-4.2,2.1-7.5,5.5-9.4,9.6   C45.3,8.7,38.3,5,30.9,5c-2.5,0-5,0.4-7.4,1.3l-3.1,1.1l1.8,2.7c4.2,6.2,11.2,10,18.7,10c2.4,0,4.8-0.4,7.2-1.2   c-0.4,1.6-0.6,3.2-0.6,4.9v0.5L46.9,24c-4-1-8.1-1.5-12.2-1.5c-15,0-27.2,12.1-27.2,27c0,14.9,6.1,29.4,16.8,39.8   C28.1,93,33.1,95,38.4,95z M28.8,10.1C34,9.5,39.3,11.3,43,14.9C37.7,15.5,32.5,13.7,28.8,10.1z M34.7,27.5c3.7,0,7.4,0.5,11,1.3   l4.3,1.1l4.3-1.1c3.6-0.9,7.3-1.3,11-1.3c4.4,0,8.7,1.3,12.3,3.7C71.4,35.3,67.5,42.3,67.5,50c0,9.6,6.2,18.1,15,21.2   c-2.5,5.3-5.9,10-10.1,14.2l-0.2,0.2c-2.8,2.8-6.6,4.4-10.6,4.4c-1.2,0-2.5-0.1-3.6-0.4l-7.9-2l-7.9,2c-1.2,0.3-2.4,0.4-3.7,0.4   c-4,0-7.7-1.5-10.6-4.3C18.1,76.2,12.5,63,12.5,49.4C12.5,37.3,22.5,27.5,34.7,27.5z"></path></g></svg>