<svg xmlns="http://www.w3.org/2000/svg" xmlns:xlink="http://www.w3.org/1999/xlink" version="1.1" x="0px" y="0px" viewBox="0 0 100 100" enable-background="new 0 0 100 100" xml:space="preserve"><g><g><g><g><polygon points="48.738,59.481 48.726,59.495 48.732,59.502 40.838,77.41 38.162,69.708 30.352,72.282 37.962,55.021       35.938,55.222 36.604,51.996 33.51,51.515 34.883,48.557 31.997,47.306 34.011,44.79 31.486,42.84 34.011,40.892 31.997,38.371       34.883,37.122 33.51,34.163 36.61,33.683 35.942,30.463 39.057,30.774 39.134,27.479 42.091,28.563 42.913,25.387       45.532,27.187 47.062,24.309 49.2,26.725 51.337,24.309 52.865,27.187 55.48,25.387 56.309,28.563 59.264,27.479 59.347,30.774       62.455,30.463 61.788,33.687 64.884,34.163 63.509,37.122 66.395,38.371 64.383,40.892 66.915,42.84 64.383,44.784       66.395,47.312 63.504,48.562 64.884,51.521 61.788,51.996 62.451,55.222 59.457,54.921 67.108,72.282 59.298,69.697       56.622,77.41 48.732,59.502     "></polygon><polygon points="48.738,59.481 48.732,59.502 48.726,59.495     "></polygon></g></g></g></g></svg>