<svg xmlns="http://www.w3.org/2000/svg" xmlns:xlink="http://www.w3.org/1999/xlink" version="1.1" x="0px" y="0px" viewBox="0 0 100 100" enable-background="new 0 0 100 100" xml:space="preserve"><g><path d="M31.188,45.276c0,3.011,2.441,4.178,5.451,4.178c1.125,0,2.17-0.164,3.038-0.525v2.914c0,1.13,0.916,2.046,2.046,2.046   H58.17c1.13,0,2.046-0.916,2.046-2.046V48.43c0.992,0.708,2.381,1.023,3.929,1.023c3.011,0,5.451-1.167,5.451-4.178   c0-1.483-0.596-2.824-1.557-3.807c4.042-4.387,6.531-10.226,6.531-16.662c0-13.599-11.024-18.255-24.623-18.255   s-24.623,4.656-24.623,18.255c0,6.685,2.673,12.739,6.998,17.175C31.62,42.9,31.188,44.033,31.188,45.276z M63.44,18.44   c3.4,0,6.156,2.756,6.156,6.156s-2.756,7.429-6.156,7.429c-3.4,0-6.156-4.03-6.156-7.429S60.04,18.44,63.44,18.44z M45.301,37.548   l3.657-9.626c0.526-1.385,2.485-1.385,3.011,0l3.657,9.626c0.514,1.354-0.88,2.646-2.191,2.03l-2.287-1.075   c-0.434-0.204-0.936-0.204-1.37,0l-2.287,1.075C46.181,40.194,44.787,38.902,45.301,37.548z M31.333,24.595   c0-3.4,2.756-6.156,6.156-6.156s6.156,2.756,6.156,6.156s-2.756,7.429-6.156,7.429S31.333,27.995,31.333,24.595z"></path><path d="M90.137,50.395c0.393-0.831,0.631-1.749,0.636-2.729c0.021-3.589-2.873-6.516-6.462-6.536   c-3.589-0.021-6.516,2.873-6.536,6.462c-0.009,1.558,0.554,2.972,1.461,4.096c-8.007,5.721-17.325,11.161-28.113,16.408   c-11.073-5.14-21.216-10.47-30.609-16.077c2.486-2.179,2.984-5.911,1.016-8.652c-2.093-2.916-6.154-3.583-9.07-1.49   c-2.481,1.781-3.315,4.982-2.224,7.695c-0.903,0.17-1.786,0.518-2.582,1.089c-2.916,2.093-3.583,6.154-1.49,9.07   c2.093,2.916,6.154,3.583,9.07,1.49c1.235-0.886,2.039-2.132,2.428-3.487c8.084,4.809,16.701,9.415,25.967,13.869   c-4.14,1.866-8.474,3.711-13.017,5.536c-0.247-3.346-3-6.003-6.413-6.023c-3.589-0.021-6.516,2.873-6.536,6.462   c-0.017,3.054,2.082,5.61,4.918,6.322c-0.393,0.831-0.631,1.749-0.636,2.729c-0.021,3.589,2.873,6.516,6.462,6.536   c3.589,0.021,6.516-2.873,6.536-6.462c0.008-1.475-0.494-2.822-1.315-3.917c6.215-2.51,12.055-5.059,17.545-7.655   c5.063,2.305,10.31,4.573,15.763,6.811c-2.629,2.155-3.188,5.994-1.178,8.795c2.093,2.916,6.154,3.583,9.07,1.49   c2.481-1.781,3.315-4.982,2.224-7.695c0.903-0.17,1.786-0.518,2.582-1.089c2.916-2.093,3.583-6.154,1.49-9.07   c-2.093-2.916-6.154-3.583-9.07-1.49c-1.177,0.845-1.968,2.016-2.378,3.298c-3.792-1.553-7.478-3.121-11.074-4.704   c8.81-4.509,16.622-9.173,23.53-14.042c0.376,3.214,3.069,5.725,6.387,5.744c3.589,0.021,6.516-2.873,6.536-6.462   C95.072,53.663,92.972,51.108,90.137,50.395z"></path></g></svg>