<svg xmlns="http://www.w3.org/2000/svg" xmlns:xlink="http://www.w3.org/1999/xlink" version="1.1" x="0px" y="0px" viewBox="0 0 100 100" enable-background="new 0 0 100 100" xml:space="preserve"><g><rect x="-606" y="-414" width="185" height="99"></rect><rect x="-414" y="-450" width="100" height="30"></rect><text transform="matrix(1 0 0 1 -348 -433.5)" fill="#000000" font-family="'Helvetica'" font-size="2.4">http://thenounproject.com</text><text transform="matrix(1 0 0 1 -406.834 -438.5)"><tspan x="0" y="0" fill="#000000" font-family="'Helvetica-Bold'" font-size="6.1578">The Noun Project</tspan><tspan x="1.12" y="4.8" fill="#000000" font-family="'Helvetica-Bold'" font-size="4">Icon Template</tspan></text><text transform="matrix(1 0 0 1 -592.5 -403.5)" fill="#000000" font-family="'Helvetica-Bold'" font-size="6.1578">Reminders</text><line fill="#000000" stroke="#FFFFFF" stroke-miterlimit="10" x1="-406" y1="-428.5" x2="-396" y2="-428.5"></line><line fill="#000000" stroke="#FFFFFF" stroke-miterlimit="10" x1="-593" y1="-397.5" x2="-576" y2="-397.5"></line><g><g><g><rect x="-584.802" y="-382.682" fill="#000000" width="8.721" height="8.642"></rect><path fill="#000000" d="M-578.455-371.688h4.747v-4.703h-4.747V-371.688z M-573.266-371.251h-5.63v-5.579h5.63V-371.251      L-573.266-371.251z M-580.221-369.938h8.279v-8.203h-8.279V-369.938L-580.221-369.938z M-571.5-369.5h-9.163v-9.079h9.163      V-369.5L-571.5-369.5z"></path><polygon fill="#000000" points="-580.149,-369.867 -580.292,-370.009 -572.013,-378.213 -571.871,-378.071     "></polygon></g></g></g><rect x="-593" y="-356" fill="none" width="35" height="32.5"></rect><text transform="matrix(1 0 0 1 -593 -353.8428)"><tspan x="0" y="0" fill="#000000" font-family="'Helvetica-Bold'" font-size="3">Strokes</tspan><tspan x="0" y="5" fill="#000000" font-family="'Helvetica'" font-size="2.4">Try to keep strokes at 4px</tspan><tspan x="0" y="10" fill="#000000" font-family="'Helvetica'" font-size="2.4">Minimum stroke weight is 2px</tspan><tspan x="0" y="14.5" fill="#000000" font-family="'Helvetica'" font-size="2.4">For thicker strokes use even </tspan><tspan x="0" y="17.5" fill="#000000" font-family="'Helvetica'" font-size="2.4">numbers: 6px, 8px etc.</tspan><tspan x="0" y="22" fill="#000000" font-family="'Helvetica-Bold'" font-size="2.4">Remember to expand strokes </tspan><tspan x="0" y="25" fill="#000000" font-family="'Helvetica-Bold'" font-size="2.4">before saving as an SVG </tspan></text><rect x="-550.5" y="-356" fill="none" width="35" height="32.5"></rect><text transform="matrix(1 0 0 1 -550.5 -353.8428)"><tspan x="0" y="0" fill="#000000" font-family="'Helvetica-Bold'" font-size="3">Size</tspan><tspan x="0" y="5" fill="#000000" font-family="'Helvetica'" font-size="2.4">Cannot be wider or taller than </tspan><tspan x="0" y="8.5" fill="#000000" font-family="'Helvetica'" font-size="2.4">100px (artboard size)</tspan><tspan x="0" y="13.5" fill="#000000" font-family="'Helvetica'" font-size="2.4">Scale your icon to fill as much of </tspan><tspan x="0" y="16.5" fill="#000000" font-family="'Helvetica'" font-size="2.4">the artboard as possible</tspan></text><rect x="-508" y="-356" fill="none" width="35" height="32.5"></rect><text transform="matrix(1 0 0 1 -508 -353.8428)"><tspan x="0" y="0" fill="#000000" font-family="'Helvetica-Bold'" font-size="3">Ungroup</tspan><tspan x="0" y="5" fill="#000000" font-family="'Helvetica'" font-size="2.4">If your design has more than one </tspan><tspan x="0" y="8" fill="#000000" font-family="'Helvetica'" font-size="2.4">shape, make sure to ungroup</tspan></text><rect x="-464" y="-356" fill="none" width="35" height="32.5"></rect><text transform="matrix(1 0 0 1 -464 -353.8428)"><tspan x="0" y="0" fill="#000000" font-family="'Helvetica-Bold'" font-size="3">Save as</tspan><tspan x="0" y="5" fill="#000000" font-family="'Helvetica'" font-size="2.4">Save as .SVG and make sure </tspan><tspan x="0" y="8" fill="#000000" font-family="'Helvetica'" font-size="2.4">“Use Artboards” is checked</tspan></text><text transform="matrix(1.0074 0 0 1 -539.542 -383.4067)" fill="#000000" font-family="'Helvetica'" font-size="2.5731">100px</text><text transform="matrix(1.0074 0 0 1 -455 -375)" fill="#000000" font-family="'Helvetica-Bold'" font-size="5.1462">.SVG</text><rect x="-540.514" y="-379.185" fill="#000000" width="10.261" height="10.185"></rect><rect x="-540.477" y="-382.234" fill="#000000" width="0.522" height="2.337"></rect><rect x="-530.812" y="-382.234" fill="#000000" width="0.523" height="2.337"></rect><rect x="-541" y="-381.663" fill="#000000" width="11.233" height="0.572"></rect><g><rect x="-497.805" y="-380.156" fill="#000000" width="10.305" height="10.156"></rect><rect x="-490.809" y="-385.293" fill="#000000" width="3.308" height="3.261"></rect></g><rect x="-592.5" y="-391.5" fill="#000000" stroke="#FFFFFF" stroke-miterlimit="10" width="30" height="30"></rect><rect x="-550.5" y="-391.5" fill="#000000" stroke="#FFFFFF" stroke-miterlimit="10" width="30" height="30"></rect><rect x="-507.5" y="-391.5" fill="#000000" stroke="#FFFFFF" stroke-miterlimit="10" width="30" height="30"></rect><rect x="-463.5" y="-391.5" fill="#000000" stroke="#FFFFFF" stroke-miterlimit="10" width="30" height="30"></rect></g><g><g><path d="M-256.584-366.424c1.168,0,1.588,0.354,2.605,1.207c1.279,1.077,3.214,2.701,6.7,2.701c3.485,0,5.418-1.626,6.696-2.702    c1.016-0.854,1.437-1.206,2.6-1.206c1.167,0,1.587,0.354,2.605,1.207c1.279,1.077,3.213,2.701,6.699,2.701s5.42-1.625,6.7-2.701    c1.019-0.853,1.44-1.207,2.606-1.207c1.168,0,1.588,0.354,2.606,1.207c1.28,1.077,3.216,2.701,6.702,2.701    c3.49,0,5.425-1.625,6.709-2.698c1.02-0.856,1.441-1.21,2.613-1.21c1.173,0,1.596,0.354,2.617,1.21    c1.281,1.074,3.217,2.698,6.707,2.698c1.758,0,3.185-1.425,3.185-3.185c0-1.758-1.427-3.184-3.185-3.184    c-1.174,0-1.596-0.355-2.617-1.211c-1.281-1.074-3.217-2.698-6.707-2.698c-3.487,0-5.424,1.624-6.707,2.698    c-1.02,0.856-1.442,1.211-2.615,1.211c-1.166,0-1.587-0.355-2.605-1.208c-1.281-1.076-3.217-2.701-6.703-2.701    c-3.487,0-5.422,1.625-6.701,2.701c-1.018,0.853-1.438,1.208-2.605,1.208c-1.167,0-1.588-0.353-2.605-1.208    c-1.278-1.076-3.213-2.701-6.699-2.701c-3.484,0-5.417,1.628-6.697,2.701c-1.015,0.855-1.438,1.208-2.599,1.208    c-1.166,0-1.589-0.353-2.605-1.208c-1.278-1.076-3.214-2.701-6.7-2.701c-1.758,0-3.185,1.426-3.185,3.185    C-259.769-367.85-258.342-366.424-256.584-366.424z"></path><path d="M-196.312-359h-0.012c0.046,0,0.041-0.174,0.1-0.22c0,0-56.844,0.079-56.665,0.172c-4.014,0.573-7.11,3.916-7.11,7.967    c0,4.455,3.729,8.081,8.321,8.081h55.366c4.593,0,8.312-3.543,8.312-7.998S-191.72-359-196.312-359z"></path><path d="M-247.092-330h46.189c3.832,0,6.937-4,6.937-10h-60.067C-254.033-334-250.924-330-247.092-330z"></path><path d="M-224-397.08c-16.445,0-29.761,9.08-30.16,21.08h60.321C-194.24-388-207.553-397.08-224-397.08z"></path></g><g><path d="M-346.65-359.184c-2.402,0-4.35,1.562-4.35,3.486v23.196c0,1.923,2.096,3.481,4.499,3.481    c2.401,0,4.501-1.559,4.501-3.481v-0.005c0,0.019-0.116,0.018-0.091,0.042c0,0-0.148-23.815-0.199-23.741    C-342.598-357.887-344.466-359.184-346.65-359.184z"></path><path d="M-330.633-352.266c1.27-3.674,1.92-7.492,1.92-11.406c0-4.758-0.951-9.296-2.663-13.442    c0.378-1.534,0.147-3.214-0.79-4.637c-6.346-9.641-16.557-15.798-27.861-17.014c-0.396-0.045-0.795-0.08-1.193-0.112    c-0.24-0.018-0.479-0.042-0.719-0.055c-0.695-0.041-1.396-0.068-2.101-0.068c-0.014,0-0.028,0-0.042,0    c-0.022,0-0.044-0.001-0.066-0.001c-0.227,0-0.451,0.018-0.678,0.021c-0.386,0.008-0.771,0.015-1.154,0.036    c-12.028,0.573-23.101,6.758-29.895,16.812c-1.01,1.495-1.238,3.287-0.78,4.896c-1.744,4.179-2.711,8.76-2.711,13.563    c0,4.182,0.74,8.256,2.189,12.161c-1.764,2.226-2.713,5.035-2.713,8.099c0,7.126,5.891,12.896,12.891,13.068v-26.139    c-2,0.045-3.615,0.452-5.165,1.148c-0.81-2.703-1.275-5.492-1.275-8.338c0-3.279,0.52-6.432,1.514-9.38    c2.188,0.355,4.471-0.546,5.797-2.505c4.949-7.324,13.163-11.696,21.986-11.696c8.954,0,17.238,4.47,22.168,11.959    c1.129,1.716,3,2.645,4.91,2.645c0.348,0,0.694-0.042,1.04-0.104c0.931,2.862,1.438,5.913,1.438,9.082    c0,2.523-0.441,4.999-1.078,7.413c-1.596-0.745-3.336-1.188-5.336-1.233v26.141c7-0.174,12.892-5.943,12.892-13.07    C-328.108-347.371-328.986-350.08-330.633-352.266z"></path><path d="M-381.499-358.816c-2.401,0-4.501,1.56-4.501,3.484v0.004c0-0.018,0.117-0.017,0.092-0.041c0,0,0.147,23.813,0.198,23.739    c0.308,1.683,2.14,2.978,4.324,2.978c2.403,0,4.387-1.561,4.387-3.485v-23.194C-377-357.257-379.096-358.816-381.499-358.816z"></path></g><path d="M-52-380.208c0-4.436-1.396-7.513-3.427-9.544c-0.007-0.008-0.011-0.019-0.019-0.027c-0.109-0.132-0.233-0.246-0.36-0.354   c-0.005-0.004-0.009-0.009-0.014-0.013c-0.038-0.032-0.075-0.063-0.114-0.093c-2.23-1.945-5.092-2.761-7.739-2.761   c-0.347,0-0.616,0.014-0.784,0.028l-46.75-0.028c-3.688,0-6.654,0.938-8.858,2.774c-0.023,0.018-0.046,0.035-0.069,0.054   c-0.365,0.309-0.713,0.636-1.035,0.996c-3,3.352-2.883,7.583-2.801,8.633l-0.027,29.461c0,6.136,2.631,9.24,4.838,10.765   c3.167,2.187,6.75,2.067,7.618,2l46.106,0.027c4.311,0,7.711-1.267,10.104-3.763c3.417-3.565,3.323-8.176,3.305-8.561   C-52.027-350.614-52-373.945-52-380.208z M-64.328-387.055l0.301-0.015c0.045-0.003,0.17-0.012,0.354-0.012   c0.12,0,0.223,0.023,0.339,0.027l-24.656,20.554l-24.601-20.507c0.438-0.045,0.894-0.074,1.383-0.074L-64.328-387.055z    M-111.67-344.236l-0.301,0.017c-0.196,0.011-2.161,0.183-3.827-0.97c-0.216-0.149-0.413-0.322-0.599-0.51l17.9-14.925   l-1.895-2.273l-17.4,14.506c-0.189-0.788-0.29-1.682-0.29-2.691l0.028-29.588l-0.02-0.331c0-0.017-0.098-1.251,0.361-2.571   l27.827,23.196c0.548,0.458,1.222,0.687,1.894,0.687c0.674,0,1.348-0.229,1.895-0.687l27.711-23.101   c0.301,0.92,0.467,1.999,0.467,3.27c0,6.26-0.027,29.586-0.023,29.717c0,0.017,0.012,1.202-0.511,2.514l-18.338-15.285   l-1.896,2.273l18.455,15.384c-1.232,0.924-2.974,1.396-5.205,1.396L-111.67-344.236z"></path><g><path d="M51.002-401.768c-14.385,0-26.086,11.701-26.086,26.084c0,4.002,0.907,7.873,2.697,11.505l23.389,34.411l23.189-34.076    l0.195-0.335c1.791-3.632,2.697-7.503,2.697-11.505C77.084-390.066,65.383-401.768,51.002-401.768z M69.473-366.812L51.002-339.67    l-18.474-27.143c-1.354-2.81-2.041-5.791-2.041-8.871c0-11.311,9.203-20.512,20.515-20.512c11.31,0,20.51,9.201,20.51,20.512    C71.512-372.604,70.825-369.622,69.473-366.812z"></path><path d="M51-386.375v-0.084c0,0.004,0.115,0.035-0.002,0.043c-0.115-0.008,0.002-0.039,0.002-0.043V-386.375    c-7,0.515-11.439,5.793-11.439,12.316S44-362.257,51-361.742v0.084c0-0.002-0.117-0.035-0.002-0.043    c0.117,0.008,0.002,0.041,0.002,0.043v-0.084c7-0.515,11.438-5.793,11.438-12.316S58-385.86,51-386.375z"></path></g><path d="M192.104-402C177.686-402,166-390.312,166-375.895c0,4.137,0.986,8.035,2.699,11.51L192.104-330l23.402-34.385   c1.713-3.475,2.699-7.373,2.699-11.51C218.205-390.312,206.52-402,192.104-402 M192.427-362.465v0.08   c-0.11-0.004-0.215-0.035-0.325-0.043c-0.109,0.008-0.213,0.039-0.322,0.043v-0.08c-6.026-0.484-10.783-5.459-10.783-11.609   c0-6.152,4.757-11.127,10.783-11.611v-0.08c0.109,0.004,0.213,0.035,0.322,0.043c0.11-0.008,0.215-0.039,0.325-0.043v0.08   c6.026,0.484,10.783,5.459,10.783,11.611C203.21-367.924,198.453-362.949,192.427-362.465"></path><path d="M-349.816-214c-4.805,0-10.244-1.498-16.184-4.463c-5.941,2.961-11.38,4.463-16.183,4.463h-0.001   c-12.925,0-18.582-10.926-19.768-16.707c-0.247-1.207,0.476-2.4,1.662-2.738c1.189-0.338,2.431,0.287,2.861,1.443   c0.077,0.195,2.151,5.272,8.917,5.326h0.002c2.644,0,3.848-0.953,5.513-2.273c2.006-1.592,4.503-3.568,9.413-3.568   c1.909,0,4.041,1.771,6.509,2.371h2.15c2.468-0.6,4.6-2.371,6.509-2.371c4.908,0,7.404,1.977,9.41,3.568   c1.668,1.32,2.869,2.273,5.437,2.273c6.958-0.057,8.979-5.273,8.998-5.326c0.43-1.156,1.673-1.781,2.86-1.443   c1.187,0.338,1.91,1.531,1.662,2.738C-331.233-224.928-336.887-214-349.816-214"></path><g><path d="M-52-234.74c0-8.723-5.81-11.818-10.785-11.818c-0.322,0-0.812,0.014-0.967,0.025L-95-246.551v-1.342    c0-3.314-1.077-5.191-2.184-6.182c-2.058-1.84-4.5-1.848-5.288-1.789l-2.759-0.016c-3.316,0-5.162,1.318-6.152,2.428    c-1.844,2.061-1.823,4.635-1.772,5.412l0.005,1.516c-3.543,0.179-6.316,1.344-8.24,3.496c-2.77,3.096-2.66,7.006-2.584,7.977    c-0.003,1.758-0.025,21.693-0.025,27.225c0,5.668,2.43,8.535,4.469,9.941c2.926,2.021,6.242,1.908,7.043,1.852l48.072,0.027    c3.984,0,7.125-1.17,9.336-3.48c3.158-3.291,3.072-7.553,3.054-7.908C-52.026-207.395-52-228.955-52-234.74z M-107.277-249.807    c0.446-0.5,1.394-0.604,2.092-0.604l3.186,0.002c0.002-0.002,0.909-0.051,1.421,0.424c0.485,0.451,0.579,1.387,0.579,2.092v1.339    l-7.683-0.004l0.007-1.581l-0.016-0.307C-107.691-248.453-107.717-249.312-107.277-249.807z M-57.494-207.307    c0.002,0.023,0.037,2.436-1.566,4.072c-1.141,1.166-2.943,1.76-5.354,1.76l-48.193-0.027l-0.279,0.014    c-0.172,0.021-2,0.166-3.535-0.895c-1.399-0.967-2.108-2.799-2.108-5.443c0-5.787,0.026-27.342,0.026-27.342l-0.015-0.279    c-0.002-0.025-0.2-2.393,1.235-3.963c1.017-1.117,2.734-1.682,5.103-1.682l14.929,0.008h0.001h0.001l33.858,0.018l0.279-0.014    c0.04-0.004,0.157-0.01,0.327-0.01c3.529,0,5.318,2.137,5.318,6.35C-57.467-228.955-57.494-207.4-57.494-207.307z"></path><path d="M-87-235.869v-0.098c0,0-0.357,0.043-0.499,0.043c-0.14,0-0.501-0.043-0.501-0.043v0.098    c-7,0.607-13.545,6.855-13.545,14.582c0,7.725,6.545,13.979,13.545,14.584v0.1c0-0.008,0.361-0.043,0.501-0.055    c0.142,0.012,0.499,0.047,0.499,0.055v-0.1c8-0.604,13.55-6.859,13.55-14.584C-73.45-229.014-79-235.262-87-235.869z     M-86.842-208.564c0.042-0.001-0.167,0.041-0.402,0.041l-0.127-0.004c-0.128,0.047-0.49-0.059-0.49-0.059    c-6.58-0.522-11.662-6.002-11.662-12.723c0-6.716,5.082-12.193,11.824-12.734l0.746-0.006c6.852,0.547,11.936,6.024,11.936,12.74    C-75.018-214.588-80.102-209.108-86.842-208.564z"></path><path d="M-87.062-231.32l-0.528,0.006c-5.197,0.422-9.198,4.725-9.198,10.006s4.002,9.592,9.309,10.021l0.101-0.008l0.164,0.035    c5.497-0.498,9.464-4.789,9.464-10.049C-77.752-226.59-81.755-230.893-87.062-231.32z"></path></g><path d="M-226.996-191.082l-30.068-37.025c-6.123-7.539-4.975-18.607,2.564-24.73c7.529-6.102,18.609-4.975,24.725,2.567   l3.938,4.841c0,0,0.779,1.23,1.63,0.062c0.737-0.912,3.979-4.903,3.979-4.903c6.123-7.536,17.191-8.675,24.729-2.567   c7.537,6.123,8.688,17.191,2.566,24.73c0,0-28.289,35.301-30.276,37.287C-225.2-188.832-226.996-191.082-226.996-191.082"></path><g><path d="M58.521-73H40.717c-1.477,0-2.674,1.839-2.674,3.999c0,2.156,1.197,4.001,2.674,4.001h0.002    c-0.014,0-0.014-0.216-0.03-0.192c0,0,18.278-0.19,18.224-0.235c1.289-0.275,2.282-1.796,2.282-3.757    C61.194-71.345,59.996-73,58.521-73z"></path><path d="M49.615-55.697c4.918,0,8.897-2.303,9.018-6.303h-18.03C40.719-58,44.699-55.697,49.615-55.697z"></path><path d="M49.619-127.672c-13.844,0-25.105,11.262-25.105,25.105c0,3.852,0.875,7.704,2.657,11.317L35.029-77h28.162l8.801-14.126    l0.134-0.306c1.724-3.496,2.597-7.251,2.597-11.103C74.723-116.378,63.462-127.672,49.619-127.672z M67.376-94.177L60.229-83    H38.182l-6.265-11.058c-1.353-2.748-2.041-5.581-2.041-8.603c0-10.887,8.854-19.695,19.743-19.695    c10.886,0,19.742,8.784,19.742,19.671C69.361-99.708,68.693-96.892,67.376-94.177z"></path></g><g><path d="M-344.087-71h-0.009c0.035,0,0.033,0.005,0.074-0.03c0,0-41.67,0.124-41.539,0.192c-2.944,0.422-5.213,2.908-5.213,5.878    c0,3.267,2.736,5.96,6.099,5.96h40.588c3.367,0,6.097-2.73,6.097-5.997C-337.99-68.263-340.72-71-344.087-71z"></path><path d="M-381.866-75h34.97c2.901,0,5.252-2.732,5.252-5.998c0-3.268-2.351-6.002-5.252-6.002h-0.006    c0.028,0,0.025,0.021,0.061-0.014c0,0-35.899,0.133-35.787,0.201c-2.536,0.42-4.491,2.895-4.491,5.863    C-387.12-77.682-384.762-75-381.866-75z"></path><path d="M-377.858-91h26.956c2.234,0,4.047-2.731,4.047-5.997c0-3.267-1.812-6.003-4.047-6.003h-0.009    c0.024,0,0.024,0.038,0.048,0.003c0,0-27.669,0.142-27.587,0.21c-1.953,0.42-3.459,2.883-3.459,5.853    C-381.909-93.669-380.092-91-377.858-91z"></path><path d="M-364.383-117.539c-7.443,0-13.469,4.539-13.648,9.539h27.298C-350.912-113-356.94-117.539-364.383-117.539z"></path><path d="M-337.034-95.362l2.812-2.837c-0.787-0.772-1.424-1.396-1.424-1.381c-0.566-0.367-1.508-0.146-2.217,0.564    c-0.781,0.78-0.98,1.846-0.443,2.379L-337.034-95.362z"></path><path d="M-331.379-95.355c0.014-0.003,0.016-0.006,0.03-0.006c0,0-0.589-0.584-1.332-1.318l-2.819,2.85l1.299,1.299    c0.535,0.535,1.599,0.336,2.377-0.444c0.781-0.78,0.979-1.843,0.449-2.378L-331.379-95.355z"></path><path d="M-328.756-102.227c-0.954-0.873-2.43-0.807-3.299,0.143c-0.248,0.273-0.42,0.59-0.518,0.922l-0.533,3.683l3.621-0.854    c0.319-0.125,0.623-0.324,0.873-0.597C-327.742-99.879-327.807-101.356-328.756-102.227z"></path><path d="M-341.033-93.105c-0.869,0.951-0.806,2.428,0.146,3.297c0.954,0.873,2.429,0.807,3.297-0.144    c0.248-0.272,0.42-0.59,0.519-0.921l0.533-3.684l-3.619,0.854C-340.48-93.576-340.785-93.376-341.033-93.105z"></path><path d="M-391.823-81.129c0.291-0.444,0.113-1.186-0.443-1.744c-0.618-0.615-1.455-0.771-1.875-0.348l-1.004,1.002l2.236,2.213    C-392.303-80.625-391.811-81.129-391.823-81.129z"></path><path d="M-397.374-79.991c-0.42,0.422-0.263,1.261,0.35,1.874c0.615,0.615,1.453,0.77,1.873,0.354l0.004-0.004    c0.002,0.01,0.002,0.013,0.002,0.024c0,0,0.459-0.465,1.039-1.049l-2.244-2.22L-397.374-79.991z"></path><path d="M-389.852-78.299c-0.215-0.196-0.467-0.332-0.726-0.408l-2.899-0.42l0.672,2.849c0.1,0.254,0.256,0.493,0.471,0.69    c0.746,0.685,1.91,0.633,2.595-0.115C-389.053-76.453-389.106-77.616-389.852-78.299z"></path><path d="M-395.778-81.83l-0.672-2.85c-0.102-0.254-0.258-0.492-0.473-0.688c-0.746-0.685-1.91-0.634-2.593,0.114    c-0.688,0.75-0.635,1.914,0.115,2.596c0.213,0.195,0.463,0.331,0.724,0.408L-395.778-81.83z"></path></g><g><path d="M-58.166-112.256c-0.402-0.4-10.006-9.744-28.707-9.744h-0.322c-18.818,0-28.301,8.998-28.696,9.375    c-2.159,2.062-2.237,5.485-0.198,7.673c2.039,2.189,5.479,2.308,7.688,0.298c0.283-0.258,7.05-6.346,21.271-6.346h0.264    c13.869,0,20.689,6.23,21.056,6.58c1.062,1.027,2.435,1.548,3.806,1.548c1.403,0,2.812-0.565,3.877-1.642    C-56.008-106.658-56.024-110.137-58.166-112.256z"></path><path d="M-66.001-101.338c-1.505,0-2.722,1.131-2.722,2.639c-0.43,2.578-9.281,20.193-18.34,37.242    c-9.01-16.957-17.814-34.473-18.332-37.199c-0.074-1.443-1.267-2.588-2.726-2.588c-1.507,0-2.728,1.219-2.728,2.729    c0,3.744,13.394,29.264,21.383,44.142l2.402,4.479l2.403-4.479c7.987-14.878,21.382-40.397,21.382-44.142    C-63.277-100.025-64.493-101.338-66.001-101.338z"></path><circle cx="-94.102" cy="-97.832" r="4.121"></circle><path d="M-91.186-78.525c0,2.275,1.846,4.123,4.121,4.123c2.276,0,4.123-1.848,4.123-4.123c0-2.273-1.847-4.119-4.123-4.119    C-89.34-82.645-91.186-80.799-91.186-78.525z"></path><path d="M-80.584-90.273c2.28,0,4.125-1.848,4.125-4.123c0-2.273-1.845-4.119-4.125-4.119c-2.275,0-4.121,1.846-4.121,4.119    C-84.705-92.121-82.859-90.273-80.584-90.273z"></path></g><path d="M81.982-229h-0.012C81.5-247,68.301-261.918,52-261.918C35.78-261.918,22.646-247,22.051-229h-0.029l0.994,22.986   l-0.994,13.229c0,0.006-0.013-0.029-0.013-0.023c0,0.004-0.009-0.029-0.009-0.023V-192h0.078c0.15,1,1.105,2.093,2.311,2.093   c2.592,0,4.035-1.498,4.99-2.402c0.754-0.719,1.065-1.081,1.938-1.081c0.876,0,1.189,0.265,1.947,0.983   c0.826,0.785,2.49,2.342,4.814,2.342c1.316,0,2.329-0.364,3.135-0.831c0.867-0.465,1.52-1.064,2.02-1.539   c0.369-0.348,0.63-0.596,0.902-0.76c0.238-0.109,0.498-0.177,0.851-0.177c0.87,0,1.181,0.298,1.938,1.017   c0.951,0.904,2.393,2.273,4.983,2.273c1.313,0,2.323-0.351,3.132-0.814c0.875-0.467,1.534-1.063,2.039-1.543   c0.368-0.348,0.631-0.594,0.898-0.76c0.242-0.107,0.492-0.174,0.849-0.174c0.873,0,1.183,0.299,1.944,1.018   c0.955,0.904,2.386,2.273,4.98,2.273c1.33,0,2.35-0.361,3.157-0.83c0.86-0.466,1.502-1.057,1.998-1.527   c0.356-0.338,0.616-0.577,0.879-0.74c0.25-0.124,0.517-0.193,0.901-0.193c0.871,0,1.183,0.299,1.939,1.018   c0.955,0.904,2.4,2.14,4.987,2.14c1.304,0,2.347-0.784,2.368-2.784H82v0.25v-0.015v-0.015l-1.02-13.045L81.982-229z M41-235.049   v-7.27c0-1.644,1.533-2.977,3.502-2.977S48-243.962,48-242.318v7.27c0,1.643-1.529,2.975-3.498,2.975S41-233.406,41-235.049z    M52.002-209.764c-4.506,0-8.158-3.654-8.158-8.159s3.652-8.159,8.158-8.159c4.508,0,8.16,3.654,8.16,8.159   S56.51-209.764,52.002-209.764z M63-235.049c0,1.643-1.53,2.975-3.502,2.975c-1.968,0-3.498-1.332-3.498-2.975v-7.27   c0-1.644,1.53-2.977,3.498-2.977c1.972,0,3.502,1.333,3.502,2.977V-235.049z"></path><g><path d="M188.002-261.699c-19.854,0-36.002,16.148-36.002,36c0,19.85,16.147,36,36.002,36c19.85,0,35.998-16.15,35.998-36    C224-245.551,207.852-261.699,188.002-261.699z M210.936-205.663c-0.006-1.157-0.012-2.076-0.016-2.068    c-0.091-0.473-0.836-0.839-1.451-0.839c-0.678,0-1.469,0.439-1.469,0.98v4.432c-5,4.928-12.362,7.936-20.244,7.936    c-16.534,0-29.904-13.237-30.336-29.668c0.015-0.013,0.096-0.015,0.108-0.028c0.004,0.009,0.036,0.011,0.034,0.019    c0,0,4.74-4.75,4.713-4.742c0.273-0.398,0.184-1.012-0.25-1.446c-0.479-0.478-1.17-0.552-1.554-0.17l-2.822,2.822    c0.763-8.525,5.052-16.047,11.395-21.101l-0.869,4.17c-0.106,0.528,0.334,1.07,0.998,1.209c0.66,0.139,1.284-0.182,1.396-0.711    c0.007,0.006,0.009,0.004,0.014,0.014c0,0,1.348-6.562,1.329-6.542c0.001-0.051-0.048-0.1-0.056-0.149    c3.069-1.922,6.145-3.313,10.145-4.042v5.323c0,0.541,0.323,0.98,0.999,0.98c0.678,0,1.001-0.439,1.001-0.98v-0.002    c1,0.005,0.258,0.005,0.264,0.012c0,0,0.115-3.865,0.104-5.712c1.152-0.133,2.385-0.208,3.572-0.208    c6.053,0,11.725,1.781,16.473,4.836c-0.078,0.098-0.122,0.207-0.148,0.332c-0.008-0.006-0.002-0.007-0.006-0.013    c0,0-1.4,6.549-1.382,6.528c-0.013,0.481,0.401,0.947,1,1.078c0.662,0.142,1.29-0.17,1.404-0.7l1.253-5.755    c7.255,5.576,11.943,14.334,11.943,24.17c0,1.054-0.055,2.095-0.158,3.121c-0.34-0.214-0.731-0.265-1.037-0.069    c0.004-0.009-0.002-0.01,0-0.021c0,0-5.625,3.638-5.596,3.638c-0.351,0.332-0.39,0.952-0.056,1.469    c0.365,0.567,1.03,0.788,1.485,0.498l4.852-3.119C216.957-214.688,214.473-209.707,210.936-205.663z"></path><path d="M175.161-207.473c-0.679,0-1.161,0.439-1.161,0.98v6.524c0,0.54,0.322,0.979,1.001,0.979c0.676,0,0.999-0.439,0.999-0.979    v-0.002c0,0.005,0.171,0.005,0.177,0.012c0,0,0.092-6.696,0.078-6.676C176.165-207.107,175.776-207.473,175.161-207.473z"></path><path d="M167.319-238.637c-0.679,0-1.319,0.439-1.319,0.98v6.523c0,0.541,0.822,0.98,1.501,0.98c0.676,0,1.499-0.439,1.499-0.98    v-0.002c0,0.006-0.171,0.006-0.165,0.013c0,0-0.158-6.697-0.172-6.677C168.573-238.271,167.935-238.637,167.319-238.637z"></path><path d="M196.199-246.341c0.004,0.011,0.006,0.011,0.004,0.019c0,0,4.725-4.75,4.697-4.742c0.272-0.398,0.176-1.012-0.258-1.445    c-0.479-0.479-1.175-0.553-1.558-0.171l-4.614,4.612c-0.38,0.384-0.307,1.078,0.174,1.558    C195.121-246.031,195.816-245.957,196.199-246.341z"></path><path d="M188.074-249.89c0,0,3.115,5.93,3.115,5.901c0.299,0.381,0.914,0.472,1.459,0.188c0.597-0.312,0.879-0.954,0.629-1.434    l-3.02-5.784c-0.25-0.478-0.938-0.616-1.537-0.302c-0.603,0.312-0.879,0.953-0.627,1.434    C188.081-249.887,188.079-249.886,188.074-249.89z"></path><path d="M165.186-221.885c-0.661-0.139-1.284,0.18-1.395,0.709l-1.332,6.389c-0.107,0.527,0.334,1.069,0.998,1.207    c0.66,0.14,1.283-0.181,1.395-0.711c0.007,0.008,0.009,0.006,0.014,0.015c0,0,1.348-6.562,1.327-6.542    C166.205-221.3,165.787-221.76,165.186-221.885z"></path><path d="M176.574-242.926c0.002,0.009,0.005,0.011,0.002,0.018c0,0,4.727-4.749,4.699-4.742c0.271-0.398,0.176-1.011-0.26-1.445    c-0.478-0.479-1.172-0.553-1.556-0.172l-4.614,4.613c-0.381,0.383-0.308,1.079,0.172,1.559    C175.496-242.617,176.191-242.543,176.574-242.926z"></path><path d="M206.57-219.621c-0.662-0.145-1.287,0.17-1.402,0.701c-0.01-0.01-0.012-0.008-0.012-0.016c0,0-1.408,6.551-1.39,6.529    c-0.013,0.482,0.399,0.945,1,1.076c0.662,0.145,1.287-0.168,1.401-0.697l1.386-6.377    C207.67-218.934,207.23-219.478,206.57-219.621z"></path><path d="M207.576-240.449c0-0.01-0.004-0.01,0.002-0.018c0,0-4.518,2.919-5.43,3.52c-3.318-4.164-8.422-6.846-14.146-6.846    c-9.979,0-18.099,8.116-18.099,18.093c0,3.846,1.216,7.408,3.27,10.343l-4.044,4.044c-0.381,0.383-0.309,1.079,0.172,1.558    c0.477,0.479,1.174,0.554,1.557,0.17c0.002,0.01,0.004,0.012,0.002,0.019c0,0,2.508-2.521,3.858-3.886    c3.31,3.585,8.031,5.848,13.284,5.848c2.283,0,4.461-0.443,6.475-1.219c-1.309,0.846-5.189,3.357-5.168,3.358    c-0.349,0.332-0.385,0.951-0.051,1.468c0.361,0.567,1.025,0.788,1.484,0.498l5.484-3.529c0.457-0.293,0.535-0.986,0.164-1.559    c-0.25-0.389-0.641-0.6-1.01-0.608c6.305-2.831,10.715-9.156,10.715-16.504c0-3.38-0.949-6.534-2.568-9.243l5.369-3.45    c0.453-0.293,0.531-0.99,0.162-1.558C208.695-240.521,208.031-240.744,207.576-240.449z M188.002-213.129    c-6.935,0-12.574-5.641-12.574-12.571s5.64-12.569,12.574-12.569c6.93,0,12.569,5.639,12.569,12.569    S194.932-213.129,188.002-213.129z"></path><path d="M212.018-227.622l2.658-5.959c0.219-0.494-0.101-1.117-0.713-1.392c-0.621-0.278-1.295-0.097-1.519,0.396    c-0.007-0.006-0.009-0.008-0.009-0.017c0,0-2.713,6.127-2.689,6.113c-0.113,0.465,0.196,1.004,0.758,1.256    C211.125-226.948,211.799-227.13,212.018-227.622z"></path><path d="M187.006-204.293c-0.66-0.146-1.287,0.17-1.402,0.699c-0.006-0.008-0.01-0.008-0.01-0.014c0,0-1.408,6.547-1.391,6.528    c-0.012,0.483,0.4,0.944,1.002,1.075c0.659,0.146,1.288-0.167,1.402-0.696l1.382-6.377    C188.109-203.604,187.666-204.15,187.006-204.293z"></path><path d="M201.875-206.308c-0.613-0.274-1.293-0.096-1.515,0.397c-0.006-0.008-0.007-0.006-0.011-0.015    c0,0-2.707,6.126-2.686,6.109c-0.113,0.469,0.196,1.007,0.758,1.255c0.615,0.277,1.295,0.1,1.514-0.396l2.662-5.957    C202.812-205.41,202.494-206.033,201.875-206.308z"></path></g><path d="M-197.43-95.645c-0.787,0-1.561,0.092-2.322,0.252c-0.509-2.107-1.252-4.167-2.234-6.164   c-0.205-0.416-0.517-0.741-0.881-0.975c-3.287-5.388-17.158-6.914-25.789-6.914c-9.043,0-23.823,1.677-26.178,7.709   c-0.036,0.06-0.079,0.112-0.11,0.176c-2.026,4.111-3.056,8.493-3.056,13.026C-258-72.25-244.752-59-228.465-59   c11.047,0,20.691-6.104,25.756-15.111c0.077,0.05,0.149,0.104,0.234,0.146c1.592,0.785,3.289,1.183,5.045,1.183   c6.303,0,11.43-5.128,11.43-11.431S-191.127-95.645-197.43-95.645z M-228.656-104.535c13.914,0,21.096,3.299,21.608,4.408   c-0.513,1.312-7.692,4.611-21.608,4.611s-21.099-3.299-21.611-4.408C-249.755-101.236-242.57-104.535-228.656-104.535z    M-228.465-63.909c-13.578-0.001-24.625-11.048-24.625-24.625c0-2.288,0.32-4.531,0.945-6.707   c5.257,3.553,16.224,4.636,23.488,4.636c7.411,0,18.686-1.126,23.805-4.856c0.67,2.249,1.008,4.566,1.008,6.929   C-203.844-74.955-214.889-63.909-228.465-63.909z M-197.43-77.692c-0.998,0-1.965-0.228-2.873-0.676   c-0.126-0.062-0.256-0.104-0.385-0.143c1.133-3.131,1.754-6.505,1.754-10.022c0-0.67-0.03-1.336-0.075-1.999   c0.516-0.131,1.042-0.202,1.579-0.202c3.596,0,6.52,2.926,6.52,6.521S-193.834-77.692-197.43-77.692z"></path><path d="M218.527-61.437l0.025-48.665c0-4.012-1.188-7.109-3.532-9.205c-3.097-2.772-7.011-2.671-7.978-2.588   c-1.758-0.002-21.693-0.026-27.225-0.026c-4.013,0-7.111,1.188-9.203,3.532c-2.771,3.098-2.664,7.008-2.588,7.979L168-62.339   c0,3.983,1.17,7.123,3.479,9.337c2.403,2.304,5.308,2.834,6.894,2.971l0.16,0.031h29.619l0.297-0.097   c3.168-0.307,5.711-1.39,7.489-3.378C218.71-56.574,218.603-60.465,218.527-61.437z M194-52.686v0.027c0,0,0.039-0.006,0.002-0.006   c-0.039,0-0.002,0.006-0.002,0.006V-52.686c-2-0.165-3.582-1.812-3.582-3.854c0-2.049,1.582-3.702,3.582-3.862v-0.026   c0,0.006-0.037,0.008,0.002,0.008c0.037,0-0.002-0.002-0.002-0.008v0.026c2,0.16,3.58,1.813,3.58,3.862   C197.58-54.497,196-52.851,194-52.686z M213.062-63h-39.593l0.025-47.451l-0.012-0.32c-0.003-0.024-0.201-2.41,1.234-3.983   c1.016-1.112,2.732-1.688,5.102-1.688c5.784,0,27.342,0.021,27.342,0.021l0.306-0.018c0.024-0.007,2.344-0.194,3.907,1.208   c1.138,1.014,1.712,2.817,1.712,5.205L213.062-63z"></path><g><path d="M-64.659,17.439c-7.12-3.732-15.768-1.141-19.684,5.902l-0.877,1.576l26.108,13.688l0.797-1.617    C-54.746,29.764-57.532,21.176-64.659,17.439z"></path><path d="M-104.552,61.352l3.04,26.385l22.951-12.252c0.399-0.215,0.687-0.562,0.827-0.959l17.384-33.116l-26.451-13.88    L-104.552,61.352z M-80.25,34.939l-15.681,29.825c-0.483,0.921-0.13,2.058,0.792,2.544c0.919,0.484,2.06,0.129,2.543-0.793    l15.646-29.844l3.495,1.834L-89.13,68.331c-0.483,0.921-0.13,2.057,0.788,2.541c0.921,0.485,2.061,0.13,2.548-0.79l15.645-29.842    l5.049,2.648L-80.722,72.65l-12.661,6.759c-0.475-1.121-1.251-2.089-2.23-2.593c-0.094-0.047-0.288-0.149-0.288-0.149    c-1.104-0.47-2.277-0.572-3.389-0.367l-1.645-14.274l15.612-29.746L-80.25,34.939z"></path></g><path d="M-197.527,50.484c0-8.018-5.342-10.686-9.917-10.686c-0.283,0-0.498,0.201-0.635,0.201h-23.242l0.014-14.109l-0.016-0.37   c-0.002-0.027-0.218-2.728,1.377-4.511c1.154-1.291,3.083-2.01,5.733-2.01h5.353l0.266,0.007c0.033,0.002,2.662-0.198,4.453,1.409   c1.292,1.162,1.949,3.099,1.949,5.75c0,1.385,1.121,2.509,2.508,2.509c1.381,0,2.506-1.12,2.506-2.505   c0-4.136-1.217-7.338-3.613-9.489c-3.195-2.869-7.242-2.681-8.184-2.681h-5.237c-4.138,0-7.326,1.23-9.471,3.629   c-2.852,3.19-2.718,7.231-2.641,8.188l-0.011,13.915c-3.099,0.215-5.564,1.241-7.27,3.148c-2.542,2.84-2.44,6.425-2.37,7.316   c-0.005,1.611-0.024,19.895-0.024,24.966c0,5.196,2.229,7.827,4.096,9.118c2.682,1.851,5.721,1.745,6.458,1.694L-208.911,86   c3.651,0,6.532-1.072,8.558-3.19c2.894-3.019,2.817-6.926,2.802-7.251C-197.552,75.559-197.527,55.788-197.527,50.484z    M-214,56.383c-1,2.25-1.6,4.204-3.334,5.432c0,0.047-0.102,0.084-0.102,0.131l-0.062,4.06c0.023,0.356-0.003,3.746-0.842,4.685   c-0.449,0.503-1.32,1.104-2.83,1.104l-1.283-0.005c-0.291,0.02-1.277,0.033-2.169-0.582c-0.639-0.442-1.404-1.327-1.404-3.048   l0.006-6.284c-0.005-0.028,0.034-0.097,0.034-0.138c-1.861-1.319-3.014-3.358-3.014-5.354v-0.408c0-3.79,3.63-6.79,7.501-6.79   c3.873,0,6.499,3,7.499,6.79V56.383z"></path><path d="M-339.438,52.483c0-7.865-5.562-10.735-9.562-10.842V28.17c0-4.135-1.306-7.336-3.702-9.488   c-3.195-2.869-7.331-2.682-8.271-2.682h-5.239c-4.139,0-7.326,1.23-9.471,3.631c-2.853,3.188-2.718,7.229-2.64,8.188l-0.013,13.915   c-3.097,0.216-5.562,1.24-7.269,3.146c-2.541,2.842-2.44,6.427-2.37,7.317C-387.979,53.809-388,72.091-388,77.164   c0,5.194,2.229,7.825,4.098,9.117c2.686,1.851,5.722,1.745,6.456,1.694L-350.911,88c3.653,0,6.532-1.071,8.56-3.19   c2.893-3.019,2.859-6.926,2.846-7.252C-339.506,77.558-339.438,57.788-339.438,52.483z M-356,58.384c-1,2.25-1.6,4.202-3.332,5.432   c0,0.043-0.104,0.082-0.104,0.13l-0.062,4.059c0.022,0.354-0.004,3.746-0.844,4.685c-0.448,0.504-1.319,1.104-2.828,1.104   l-1.286-0.004c-0.291,0.02-1.276,0.034-2.167-0.583c-0.639-0.44-1.404-1.327-1.404-3.046l0.006-6.285   c-0.005-0.029,0.035-0.098,0.035-0.141c-1.86-1.316-3.015-3.355-3.015-5.35v-0.41c0-3.789,3.628-6.789,7.501-6.789   c3.874,0,6.499,3,7.499,6.789V58.384z M-354,42h-19.321l0.013-14.109l-0.015-0.371c-0.003-0.026-0.218-2.727,1.378-4.512   c1.152-1.289,3.083-2.008,5.732-2.008h5.352l0.267,0.006c0.032,0.006,2.763-0.198,4.55,1.411c1.293,1.16,2.045,3.102,2.045,5.753   V42z"></path><polygon points="71.709,57.38 88.001,38.897 64.188,34.203 52.363,13 39.816,34.203 16,38.897 32.295,57.38 32.344,57.228    32.38,57.391 32.365,57.38 29.922,81.896 52.001,71.806 74.079,81.896 71.643,57.433  "></polygon><path d="M224,31.834c0-12.423-8.274-16.83-15.362-16.83c-0.456,0-0.806,0.019-1.026,0.033c-2.496-0.003-30.9-0.037-38.779-0.037   c-5.711,0-10.122,1.691-13.111,5.03c-3.943,4.411-3.787,9.978-3.681,11.362l-0.038,37.139c0,13.925,10.085,17.469,16.215,17.469   h0.004l38.941,0.213c5.719,0,10.13-1.604,13.119-4.942c3.943-4.411,3.787-9.934,3.681-11.318L224,31.834z M212.836,56H203v26h-10   V56h-7V46h7v-8.185c0-6.427,4.043-12.324,13.609-12.324c3.871,0,6.684,0.372,6.684,0.372l-0.255,8.937c0,0-2.884-0.026-6.071-0.026   c-3.451,0-3.967,1.589-3.967,4.225v0.44V46h10.283L212.836,56z"></path></g></svg>