<svg xmlns="http://www.w3.org/2000/svg" xmlns:xlink="http://www.w3.org/1999/xlink" version="1.1" x="0px" y="0px" viewBox="0 0 100 100" enable-background="new 0 0 100 100" xml:space="preserve"><path fill="#000000" d="M44.769,10.641L24.284,41.435c-1.912,2.874-1.132,6.752,1.741,8.663c2.875,1.914,6.753,1.132,8.663-1.741  l8.12-12.207v47.908c0,3.972,3.22,7.19,7.191,7.19c3.973,0,7.191-3.219,7.191-7.19V36.149l8.12,12.208  c1.911,2.874,5.788,3.653,8.664,1.741c2.873-1.911,3.652-5.789,1.741-8.663L55.228,10.632c-0.14-0.213-0.296-0.416-0.463-0.613  c-0.048-0.056-0.098-0.108-0.146-0.163c-0.108-0.119-0.223-0.234-0.342-0.347c-0.067-0.063-0.136-0.127-0.207-0.188  c-0.105-0.091-0.218-0.177-0.331-0.262C53.657,9,53.579,8.936,53.496,8.88c-0.012-0.008-0.022-0.018-0.034-0.025  c-0.036-0.024-0.075-0.04-0.112-0.062c-0.197-0.126-0.399-0.241-0.608-0.343c-0.089-0.044-0.18-0.082-0.271-0.121  c-0.167-0.072-0.336-0.137-0.508-0.193c-0.107-0.035-0.214-0.07-0.323-0.101c-0.167-0.045-0.337-0.08-0.507-0.111  c-0.104-0.019-0.209-0.043-0.313-0.057c-0.249-0.033-0.499-0.051-0.751-0.054c-0.021-0.001-0.042-0.005-0.062-0.005  c-0.002,0-0.004,0-0.006,0s-0.004,0-0.006,0c-0.021,0-0.041,0.004-0.062,0.005c-0.252,0.003-0.503,0.021-0.752,0.054  c-0.104,0.014-0.209,0.038-0.313,0.058c-0.17,0.031-0.338,0.065-0.505,0.11c-0.109,0.03-0.218,0.065-0.327,0.102  c-0.17,0.057-0.336,0.12-0.501,0.19c-0.094,0.04-0.187,0.08-0.278,0.125c-0.203,0.1-0.4,0.212-0.594,0.334  c-0.04,0.025-0.083,0.043-0.123,0.069c-0.014,0.009-0.025,0.02-0.038,0.028c-0.078,0.053-0.151,0.111-0.227,0.168  c-0.12,0.089-0.237,0.179-0.348,0.274c-0.067,0.058-0.132,0.117-0.196,0.179c-0.124,0.115-0.242,0.235-0.354,0.359  c-0.046,0.051-0.092,0.1-0.136,0.151C45.069,10.215,44.91,10.423,44.769,10.641z"></path></svg>